# This file uses centimeters as units for non-parametric coordinates.

mtllib tesetobj.mtl
g default
v -1.430593 -1.430593 1.430593
v 1.430593 -1.430593 1.430593
v -1.430593 2.260332 1.430593
v 1.430593 2.260332 1.430593
v -1.430593 2.260332 -1.430593
v 1.430593 2.260332 -1.430593
v -1.430593 -1.430593 -1.430593
v 1.430593 -1.430593 -1.430593
v 2.083955 0.429818 2.083955
v -2.083955 0.429818 2.083955
v -2.083955 0.429818 -2.083955
v 2.083955 0.429818 -2.083955
vt 0.375000 0.000000
vt 0.625000 0.000000
vt 0.375000 0.250000
vt 0.625000 0.250000
vt 0.375000 0.500000
vt 0.625000 0.500000
vt 0.375000 0.750000
vt 0.625000 0.750000
vt 0.375000 1.000000
vt 0.625000 1.000000
vt 0.875000 0.000000
vt 0.875000 0.250000
vt 0.125000 0.000000
vt 0.125000 0.250000
vt 0.625000 0.123076
vt 0.375000 0.123076
vt 0.125000 0.123076
vt 0.375000 0.626924
vt 0.625000 0.626924
vt 0.875000 0.123076
vn 0.000000 -0.331353 0.943507
vn 0.000000 -0.331353 0.943507
vn 0.000000 0.035565 0.999367
vn 0.000000 -0.036951 0.999317
vn 0.000000 1.000000 0.000000
vn 0.000000 1.000000 0.000000
vn 0.000000 1.000000 0.000000
vn 0.000000 1.000000 0.000000
vn 0.000000 -0.036951 -0.999317
vn 0.000000 0.035565 -0.999367
vn 0.000000 -0.331353 -0.943507
vn 0.000000 -0.331353 -0.943507
vn 0.000000 -1.000000 0.000000
vn 0.000000 -1.000000 0.000000
vn 0.000000 -1.000000 0.000000
vn 0.000000 -1.000000 0.000000
vn 0.943507 -0.331353 0.000000
vn 0.943507 -0.331352 0.000000
vn 0.999367 0.035565 0.000000
vn 0.999317 -0.036951 0.000000
vn -0.943507 -0.331353 0.000000
vn -0.943507 -0.331352 0.000000
vn -0.999367 0.035565 0.000000
vn -0.999317 -0.036951 0.000000
vn 0.000000 0.336157 0.941806
vn 0.000000 0.336157 0.941806
vn -0.941806 0.336157 0.000000
vn -0.941806 0.336157 0.000000
vn 0.000000 0.336157 -0.941806
vn 0.000000 0.336157 -0.941806
vn 0.941806 0.336157 0.000000
vn 0.941806 0.336157 0.000000
s 1
g pCube1
usemtl initialShadingGroup
f 1/1/1 2/2/2 10/16/3
f 10/16/3 2/2/2 9/15/4
s 2
f 3/3/5 4/4/6 5/5/7
f 5/5/7 4/4/6 6/6/8
s 3
f 11/18/9 12/19/10 7/7/11
f 7/7/11 12/19/10 8/8/12
s 4
f 7/7/13 8/8/14 1/9/15
f 1/9/15 8/8/14 2/10/16
s 5
f 2/2/17 8/11/18 9/15/19
f 9/15/19 8/11/18 12/20/20
s 6
f 7/13/21 1/1/22 11/17/23
f 11/17/23 1/1/22 10/16/24
s 1
f 10/16/3 9/15/4 3/3/25
f 3/3/25 9/15/4 4/4/26
s 6
f 11/17/23 10/16/24 5/14/27
f 5/14/27 10/16/24 3/3/28
s 3
f 5/5/29 6/6/30 11/18/9
f 11/18/9 6/6/30 12/19/10
s 5
f 9/15/19 12/20/20 4/4/31
f 4/4/31 12/20/20 6/12/32
